PathFileType	4	(X/Y/Z)	 s03c0001.trc
DataRate	CameraRate	NumFrames	NumMarkers	Units	OrigDataRate	OrigDataStartFrame	OrigNumFrames
200	200	4	49	mm	200	501	2000
Frame#	Time	racr			lacr			c7			jug			rlel			rdr			llel			ldr			s2			lic			ric			lasi			rasi			rpsi			lpsi			rgt			lgt			rth1			rth2			rth3			rth4			rlfc			rmfc			rsh1			rsh2			rsh3			rsh4			rlmal			rmmal			rcal			rtoe			rmt5			rmt1			lth1			lth2			lth4			lth3			llfc			lmfc			lsh1			lsh2			lsh3			lsh4			llmal			lmmal			lcal			ltoe			lmt1			lmt5			
		X1	Y1	Z1	X2	Y2	Z2	X3	Y3	Z3	X4	Y4	Z4	X5	Y5	Z5	X6	Y6	Z6	X7	Y7	Z7	X8	Y8	Z8	X9	Y9	Z9	X10	Y10	Z10	X11	Y11	Z11	X12	Y12	Z12	X13	Y13	Z13	X14	Y14	Z14	X15	Y15	Z15	X16	Y16	Z16	X17	Y17	Z17	X18	Y18	Z18	X19	Y19	Z19	X20	Y20	Z20	X21	Y21	Z21	X22	Y22	Z22	X23	Y23	Z23	X24	Y24	Z24	X25	Y25	Z25	X26	Y26	Z26	X27	Y27	Z27	X28	Y28	Z28	X29	Y29	Z29	X30	Y30	Z30	X31	Y31	Z31	X32	Y32	Z32	X33	Y33	Z33	X34	Y34	Z34	X35	Y35	Z35	X36	Y36	Z36	X37	Y37	Z37	X38	Y38	Z38	X39	Y39	Z39	X40	Y40	Z40	X41	Y41	Z41	X42	Y42	Z42	X43	Y43	Z43	X44	Y44	Z44	X45	Y45	Z45	X46	Y46	Z46	X47	Y47	Z47	X48	Y48	Z48	X49	Y49	Z49	
501	2.5050	259.510120	1570.535250	584.155977	254.793057	1587.914918	204.006945	193.640385	1607.684671	397.357884	359.413761	1554.605213	395.609754	183.736615	1298.258697	690.603384	276.777826	1116.883572	885.054434	180.799172	1316.561432	99.024659	262.166636	1125.486826	-106.318145	158.965948	1066.677346	375.019486	293.226037	1165.183817	195.392597	286.871743	1150.756261	567.354655	356.075375	1104.013408	237.627088	357.356881	1100.235595	520.787408	160.264829	1107.460292	424.890445	164.035004	1115.694493	341.934323	268.850397	1008.744378	561.902148	282.509727	1015.584712	187.390160	282.750170	870.237877	576.871498	313.750298	786.858604	571.051731	303.826165	703.683808	556.482112	349.764913	792.418084	566.381383	298.010495	577.395329	524.758804	329.226122	556.880760	418.320286	243.353857	412.664551	552.678168	254.458735	323.570758	548.110495	219.074984	243.218217	542.274295	288.621862	320.166547	530.593689	208.919789	104.177254	530.944084	248.931848	121.874765	449.960123	165.220816	56.109057	483.357818	468.513106	90.968273	503.299274	353.540051	43.417675	563.387736	378.778667	81.004973	453.974565	294.162672	865.740780	174.400624	318.099820	782.821001	181.772185	354.110795	785.054062	183.816099	297.237799	698.018344	195.374483	311.927844	576.847800	220.616017	333.853960	558.816861	333.956597	252.439593	413.200684	184.415672	264.742318	329.030019	192.990861	229.521530	244.616955	196.637338	299.044246	324.910449	211.091868	220.692098	110.622289	206.051423	259.129851	124.790765	292.834548	172.465855	55.070716	258.092432	479.399243	92.678276	234.428073	389.102165	73.356503	286.041060	358.251830	50.702710	172.465578	
502	2.5100	259.520713	1570.541384	584.174653	254.824240	1587.910835	204.001766	193.636284	1607.689265	397.385462	359.423488	1554.600880	395.609899	183.762681	1298.249985	690.580864	276.785483	1116.877746	885.027094	180.823988	1316.560519	99.046388	262.188330	1125.482200	-106.302429	158.997415	1066.676986	375.020538	293.227913	1165.180179	195.391467	286.858607	1150.773840	567.356844	356.088791	1104.017484	237.649418	357.362824	1100.242195	520.788486	160.268223	1107.447403	424.895188	164.076732	1115.694861	341.908728	268.837289	1008.749975	561.901603	282.515967	1015.586784	187.377764	282.767210	870.223469	576.860177	313.755340	786.844230	571.050874	303.815438	703.671290	556.487002	349.753817	792.410256	566.379953	298.010607	577.400210	524.762430	329.225516	556.879468	418.319552	243.351079	412.666573	552.678144	254.472239	323.560091	548.115018	219.089671	243.207697	542.264333	288.620867	320.173564	530.587122	208.932290	104.173106	530.958758	248.925461	121.858859	449.954485	165.257626	56.085299	483.357738	468.517358	90.969085	503.289391	353.512263	43.381912	563.377523	378.759822	81.002710	453.975082	294.171189	865.752623	174.388411	318.117968	782.817709	181.787730	354.134702	785.036179	183.814794	297.250029	698.019443	195.393463	311.980288	576.843275	220.624304	333.880935	558.825206	333.958012	252.441094	413.196988	184.411188	264.749756	329.012655	192.992348	229.519092	244.618895	196.629247	299.070298	324.892646	211.105581	220.687803	110.636437	206.048576	259.113877	124.794681	292.821866	172.460020	55.060197	258.089483	479.410992	92.692736	234.440581	389.072527	73.336831	286.046915	358.222102	50.692288	172.461513	
503	2.5150	259.545288	1570.517411	584.163412	254.858558	1587.904736	203.991874	193.680564	1607.685178	397.374143	359.448567	1554.598835	395.620008	183.780187	1298.244807	690.576262	276.809878	1116.872569	885.028909	180.847071	1316.543880	99.064324	262.230042	1125.453101	-106.293491	158.997416	1066.676988	375.020538	293.227064	1165.179284	195.401120	286.858681	1150.790090	567.355543	356.102687	1104.011529	237.634600	357.374384	1100.231722	520.796333	160.373801	1107.596219	424.932204	164.067541	1115.696596	341.935633	268.845989	1008.754704	561.901362	282.543214	1015.586651	187.387112	282.770602	870.225558	576.885973	313.759949	786.851282	571.071280	303.826379	703.673347	556.486527	349.775096	792.395869	566.376169	298.019362	577.401973	524.765402	329.228143	556.873248	418.332301	243.363643	412.672528	552.677317	254.473449	323.570725	548.117026	219.077353	243.210861	542.268998	288.647898	320.169601	530.601507	208.934236	104.184631	530.963775	248.925543	121.854343	449.963866	165.252126	56.103872	483.356853	468.512449	90.968356	503.282986	353.555719	43.403554	563.391649	378.771289	80.998572	453.978510	294.196124	865.755864	174.403453	318.140690	782.818662	181.782487	354.144244	785.048325	183.803555	297.267330	698.020693	195.381451	311.984053	576.827735	220.632631	333.887709	558.819643	333.960794	252.443905	413.206490	184.404021	264.762438	329.007558	193.008398	229.519618	244.618423	196.629111	299.056069	324.891594	211.102263	220.708691	110.630149	206.032488	259.120319	124.791080	292.829883	172.468216	55.070941	258.091716	479.417218	92.707080	234.440387	389.109072	73.364273	286.038771	358.260261	50.714536	172.474668	
504	2.5200	259.540639	1570.549261	584.214965	254.894517	1587.896408	203.979562	193.704756	1607.680843	397.354694	359.486345	1554.593882	395.612561	183.788096	1298.255491	690.580266	276.835666	1116.872389	885.013970	180.870286	1316.534948	99.066787	262.248592	1125.448859	-106.265479	158.997385	1066.689185	375.017575	293.260401	1165.167194	195.390473	286.887405	1150.782538	567.360502	356.102037	1104.024430	237.643983	357.389629	1100.232104	520.789348	160.374604	1107.594917	424.935511	164.083805	1115.692072	341.930345	268.843530	1008.745845	561.910895	282.556573	1015.587604	187.378295	282.757600	870.242917	576.904155	313.762299	786.855323	571.080289	303.827999	703.671326	556.504123	349.775391	792.415873	566.394511	298.021291	577.402909	524.771575	329.213417	556.857547	418.333293	243.354116	412.665697	552.684228	254.460507	323.559715	548.120819	219.085447	243.211065	542.269456	288.622401	320.170898	530.607772	208.928554	104.184536	530.953505	248.923011	121.862745	449.962754	165.224245	56.119671	483.353967	468.514946	90.946733	503.286684	353.555738	43.403545	563.391642	378.761028	81.006780	453.970915	294.216505	865.746462	174.390749	318.148656	782.807511	181.796844	354.149287	785.046460	183.796751	297.271483	698.021484	195.401910	311.984693	576.829880	220.619937	333.878016	558.803655	333.955077	252.458865	413.214430	184.390686	264.761212	329.033676	192.993603	229.521514	244.616964	196.637342	299.066682	324.891180	211.109650	220.672704	110.649773	206.039259	259.143459	124.783168	292.823771	172.451377	55.091180	258.081575	479.380819	92.682473	234.402176	389.119356	73.346705	286.054342	358.281241	50.713172	172.450947	
